# Blender 3.3.0
# www.blender.org
mtllib ship.mtl
o Cube
v -0.646883 -0.646883 4.561003
v -0.646883 0.646883 4.561003
v -1.000000 0.022055 -0.395613
v -1.000000 0.567918 -0.395613
v 0.646883 -0.646883 4.561003
v 0.646883 0.646883 4.561003
v 1.000000 -1.000000 -2.652905
v 1.000000 1.000000 -2.652905
v -1.000000 1.647923 -5.117605
v -1.000000 -0.352077 -5.117605
v 1.000000 -0.352077 -5.117605
v 1.000000 1.647923 -5.117605
v -1.000000 0.022055 2.401920
v -1.000000 0.567918 2.401920
v 1.000000 1.000000 2.690565
v 1.000000 -1.000000 2.690565
v -1.000000 -1.000000 -2.652905
v -1.000000 -1.000000 2.690565
v -1.000000 1.000000 2.690565
v -1.000000 1.000000 -2.652905
v -6.397119 0.022055 -0.395613
v -6.397119 0.022055 2.401920
v -6.397119 0.118317 2.401920
v -6.397119 0.118317 -0.395613
v 0.646883 -0.646883 4.561003
v 0.646883 0.646883 4.561003
v 1.000000 0.022055 -0.395613
v 1.000000 0.567918 -0.395613
v -0.646883 -0.646883 4.561003
v -0.646883 0.646883 4.561003
v -1.000000 -1.000000 -2.652905
v -1.000000 1.000000 -2.652905
v 1.000000 1.647923 -5.117605
v 1.000000 -0.352077 -5.117605
v -1.000000 -0.352077 -5.117605
v -1.000000 1.647923 -5.117605
v 1.000000 0.022055 2.401920
v 1.000000 0.567918 2.401920
v -1.000000 1.000000 2.690565
v -1.000000 -1.000000 2.690565
v 1.000000 -1.000000 -2.652905
v 1.000000 -1.000000 2.690565
v 1.000000 1.000000 2.690565
v 1.000000 1.000000 -2.652905
v 6.397119 0.022055 -0.395613
v 6.397119 0.022055 2.401920
v 6.397119 0.118317 2.401920
v 6.397119 0.118317 -0.395613
vn -0.0000 -0.0000 -1.0000
vn 1.0000 -0.0000 -0.0000
vn -0.0000 -0.0000 1.0000
vn -0.0000 -1.0000 -0.0000
vn -0.0000 1.0000 -0.0000
vn -0.0000 -0.9671 -0.2542
vn -0.0000 0.9671 0.2542
vn -1.0000 -0.0000 -0.0000
vn -0.9826 -0.0000 0.1855
vn 0.9826 -0.0000 0.1855
vn -0.0000 -0.9826 0.1855
vn -0.0000 0.9826 0.1855
vn -0.0830 0.9965 -0.0000
vn 0.0830 0.9965 -0.0000
vt 0.419140 0.955860
vt 0.580860 0.955860
vt 0.455182 0.219989
vt 0.544818 0.219989
vt 0.419140 0.794140
vt 0.580860 0.794140
vt 0.375000 0.500000
vt 0.625000 0.500000
vt 0.875000 0.500000
vt 0.625000 0.250000
vt 0.125000 0.500000
vt 0.375000 0.250000
vt 0.375000 0.500000
vt 0.625000 0.500000
vt 0.455182 0.030011
vt 0.544818 0.030011
vt 0.625000 0.750000
vt 0.375000 0.750000
vt 0.125000 0.500000
vt 0.375000 0.250000
vt 0.125000 0.750000
vt 0.375000 1.000000
vt 0.375000 0.000000
vt 0.875000 0.750000
vt 0.625000 1.000000
vt 0.625000 0.000000
vt 0.875000 0.500000
vt 0.625000 0.250000
vt 0.455182 0.219989
vt 0.455182 0.030011
vt 0.544818 0.030011
vt 0.544818 0.219989
vt 0.419140 0.955860
vt 0.580860 0.955860
vt 0.455182 0.219989
vt 0.544818 0.219989
vt 0.419140 0.794140
vt 0.580860 0.794140
vt 0.375000 0.500000
vt 0.625000 0.500000
vt 0.875000 0.500000
vt 0.625000 0.250000
vt 0.125000 0.500000
vt 0.375000 0.250000
vt 0.375000 0.500000
vt 0.625000 0.500000
vt 0.455182 0.030011
vt 0.544818 0.030011
vt 0.625000 0.750000
vt 0.375000 0.750000
vt 0.125000 0.500000
vt 0.375000 0.250000
vt 0.125000 0.750000
vt 0.375000 1.000000
vt 0.375000 0.000000
vt 0.875000 0.750000
vt 0.625000 1.000000
vt 0.625000 0.000000
vt 0.875000 0.500000
vt 0.625000 0.250000
vt 0.455182 0.219989
vt 0.455182 0.030011
vt 0.544818 0.030011
vt 0.544818 0.219989
s 0
f 4/4/1 3/3/1 21/29/1 24/32/1
f 8/8/2 7/7/2 11/13/2 12/14/2
f 7/7/2 8/8/2 15/17/2 16/18/2
f 5/5/3 6/6/3 2/2/3 1/1/3
f 17/19/4 7/7/4 16/18/4 18/21/4
f 8/8/5 20/27/5 19/24/5 15/17/5
f 10/12/1 9/10/1 12/14/1 11/13/1
f 7/7/6 17/19/6 10/11/6 11/13/6
f 20/27/7 8/8/7 12/14/7 9/9/7
f 17/20/8 20/28/8 9/10/8 10/12/8
f 1/1/9 2/2/9 19/25/9 18/22/9
f 6/6/10 5/5/10 16/18/10 15/17/10
f 5/5/11 1/1/11 18/22/11 16/18/11
f 2/2/12 6/6/12 15/17/12 19/25/12
f 13/15/8 3/3/8 17/20/8 18/23/8
f 14/16/8 13/15/8 18/23/8 19/26/8
f 4/4/8 14/16/8 19/26/8 20/28/8
f 3/3/8 4/4/8 20/28/8 17/20/8
f 22/30/8 23/31/8 24/32/8 21/29/8
f 13/15/3 14/16/3 23/31/3 22/30/3
f 14/16/13 4/4/13 24/32/13 23/31/13
f 3/3/4 13/15/4 22/30/4 21/29/4
f 28/36/1 48/64/1 45/61/1 27/35/1
f 32/40/8 36/46/8 35/45/8 31/39/8
f 31/39/8 40/50/8 39/49/8 32/40/8
f 29/37/3 25/33/3 26/34/3 30/38/3
f 41/51/4 42/53/4 40/50/4 31/39/4
f 32/40/5 39/49/5 43/56/5 44/59/5
f 34/44/1 35/45/1 36/46/1 33/42/1
f 31/39/6 35/45/6 34/43/6 41/51/6
f 44/59/7 33/41/7 36/46/7 32/40/7
f 41/52/2 34/44/2 33/42/2 44/60/2
f 25/33/10 42/54/10 43/57/10 26/34/10
f 30/38/9 39/49/9 40/50/9 29/37/9
f 29/37/11 40/50/11 42/54/11 25/33/11
f 26/34/12 43/57/12 39/49/12 30/38/12
f 37/47/2 42/55/2 41/52/2 27/35/2
f 38/48/2 43/58/2 42/55/2 37/47/2
f 28/36/2 44/60/2 43/58/2 38/48/2
f 27/35/2 41/52/2 44/60/2 28/36/2
f 46/62/2 45/61/2 48/64/2 47/63/2
f 37/47/3 46/62/3 47/63/3 38/48/3
f 38/48/14 47/63/14 48/64/14 28/36/14
f 27/35/4 45/61/4 46/62/4 37/47/4
